<?xml version="1.0" encoding="utf-8"?><svg width="331" height="204" viewBox="0 0 331 204" fill="none" xmlns="http://www.w3.org/2000/svg"><g data-figma-bg-blur-radius="24"><g clip-path="url(#clip0_276_3315)"><path d="M42.924 62.0177C41.9864 61.9674 41.3712 61.2824 41.4236 60.3073L42.1508 46.7684L42.0882 46.7651L39.0667 48.6338C38.7421 48.8421 38.4873 48.9162 38.1373 48.8974C37.4622 48.8611 37.0009 48.3474 37.0392 47.6348C37.066 47.1347 37.2862 46.7705 37.8439 46.4243L41.6707 44.0346C42.501 43.515 43.0071 43.4294 43.6822 43.4656C44.8198 43.5267 45.4704 44.2512 45.4107 45.3638L44.5989 60.4778C44.5466 61.4529 43.8616 62.0681 42.924 62.0177ZM55.5067 62.8063C51.3688 62.5841 48.5971 60.2663 48.7623 57.191C48.8879 54.8533 50.6466 53.1549 53.0855 52.7969L53.0895 52.7219C51.0438 52.0604 49.7763 50.4502 49.8804 48.5125C50.0294 45.7373 52.7891 43.8419 56.5145 44.042C60.2399 44.2421 62.7689 46.4089 62.6185 49.2092C62.5157 51.1219 61.0962 52.5752 58.9901 53.0388L58.9861 53.1138C61.3719 53.7435 62.9511 55.6211 62.8262 57.9463C62.6604 61.0341 59.6321 63.0279 55.5067 62.8063ZM56.0949 51.8553C57.9575 51.9553 59.3418 50.9264 59.4264 49.3512C59.5123 47.751 58.2463 46.5798 56.3836 46.4797C54.5084 46.379 53.136 47.4211 53.0507 49.0088C52.9661 50.5839 54.2197 51.7545 56.0949 51.8553ZM55.639 60.3436C57.8017 60.4598 59.3946 59.279 59.4886 57.5289C59.5833 55.7662 58.1253 54.4342 55.9626 54.318C53.7999 54.2018 52.2069 55.3826 52.1129 57.1327C52.0189 58.8829 53.4762 60.2274 55.639 60.3436ZM67.7037 51.4005C66.6911 51.3462 65.9465 50.5038 66.0003 49.5037C66.054 48.5036 66.8845 47.7458 67.8971 47.8002C68.8972 47.8539 69.6418 48.6963 69.5881 49.6964C69.5344 50.6965 68.7038 51.4543 67.7037 51.4005ZM67.219 60.4264C66.2064 60.3721 65.4611 59.5422 65.5155 58.5296C65.5692 57.5295 66.3997 56.7717 67.4124 56.8261C68.4125 56.8798 69.1571 57.7222 69.1033 58.7223C69.049 59.7349 68.2191 60.4802 67.219 60.4264ZM77.9775 63.9004C77.0399 63.85 76.4247 63.165 76.4771 62.1899L77.2042 48.6511L77.1417 48.6477L74.1202 50.5165C73.7956 50.7247 73.5408 50.7988 73.1908 50.78C72.5157 50.7438 72.0544 50.23 72.0926 49.5175C72.1195 49.0174 72.3397 48.6531 72.8974 48.3069L76.7242 45.9173C77.5545 45.3977 78.0606 45.312 78.7357 45.3483C79.8733 45.4094 80.5239 46.1339 80.4642 47.2465L79.6524 62.3605C79.6 63.3356 78.9151 63.9507 77.9775 63.9004ZM90.6352 64.693C86.1847 64.454 83.7285 60.6988 84.0394 54.9107C84.3489 49.1477 87.2176 45.691 91.643 45.9287C96.0559 46.1657 98.5267 49.8841 98.2165 55.6596C97.9063 61.4352 95.0731 64.9314 90.6352 64.693ZM90.7769 62.0553C93.2146 62.1862 94.7359 59.773 94.9655 55.4976C95.1924 51.2721 93.9141 48.696 91.5013 48.5664C89.0761 48.4362 87.516 50.8724 87.2904 55.0728C87.0608 59.3482 88.3266 61.9237 90.7769 62.0553Z" fill="white" /><path d="M35.3776 85.8066L35.8621 76.787L41.4501 77.0871L41.3957 78.0997L36.9328 77.86L36.7774 80.7541L41.009 80.9813L40.9553 81.9814L36.7237 81.7542L36.5571 84.8545L41.0201 85.0942L40.9657 86.1068L35.3776 85.8066ZM44.5809 83.223L44.2371 83.2046L44.0723 86.2736L42.9846 86.2152L43.3465 79.477L44.4342 79.5355L44.2827 82.3545L44.6265 82.3729L47.3844 79.6939L48.6908 79.7641L45.3962 82.8656L45.4066 82.6719L48.4477 86.5086L47.0538 86.4338L44.5809 83.223ZM51.6104 86.7976C51.1853 86.7748 50.8063 86.6729 50.4734 86.492C50.1446 86.3114 49.8882 86.0657 49.7043 85.7549C49.5246 85.4444 49.4457 85.0849 49.4676 84.6765L49.4683 84.664C49.4897 84.264 49.6039 83.9274 49.8108 83.6544C50.018 83.3771 50.3092 83.1671 50.6847 83.0243C51.0601 82.8815 51.5091 82.8095 52.0315 82.8083L54.5148 82.7912L54.4681 83.66L52.1161 83.6842C51.602 83.6858 51.2212 83.7719 50.9739 83.9425C50.7307 84.1133 50.6001 84.3654 50.5822 84.6988L50.5815 84.7113C50.5632 85.053 50.678 85.3266 50.9261 85.5322C51.1744 85.7336 51.4944 85.8448 51.8861 85.8658C52.257 85.8857 52.5901 85.8305 52.8854 85.7001C53.181 85.5655 53.4169 85.3755 53.5931 85.13C53.7734 84.8848 53.8722 84.6018 53.8894 84.2809L54.0022 82.1807C54.0246 81.764 53.9145 81.4404 53.672 81.2101C53.4338 80.9758 53.0626 80.8451 52.5584 80.8181C52.1542 80.7963 51.819 80.8515 51.5528 80.9835C51.2868 81.1113 51.103 81.3041 51.0014 81.5619L50.9942 81.5803L49.9066 81.5219L49.9148 81.4847C49.9922 81.1337 50.1546 80.8331 50.4021 80.5831C50.6539 80.3292 50.9713 80.1394 51.3541 80.0137C51.7372 79.8838 52.1684 79.8317 52.6476 79.8575C53.1977 79.887 53.6575 80.0016 54.0271 80.2011C54.4008 80.4009 54.6765 80.6748 54.8543 81.0229C55.0364 81.367 55.1149 81.7724 55.0898 82.2391L54.8421 86.852L53.7545 86.7936L53.8079 85.7998L53.7078 85.7944C53.5534 86.0243 53.3696 86.2171 53.1565 86.3729C52.9475 86.5288 52.7136 86.6437 52.4547 86.7176C52.196 86.7872 51.9146 86.8139 51.6104 86.7976ZM62.1922 80.4892L62.1438 81.3893L59.9624 81.2721L59.6488 87.1102L58.5612 87.0518L58.8748 81.2137L56.6933 81.0966L56.7416 80.1965L62.1922 80.4892ZM65.8993 87.565C65.2576 87.5306 64.713 87.3592 64.2657 87.051C63.8226 86.743 63.4898 86.324 63.2676 85.7938C63.0497 85.2597 62.9597 84.6406 62.9975 83.9363L62.9978 83.9301C63.0352 83.2342 63.1909 82.6303 63.465 82.1185C63.7432 81.6068 64.1174 81.2153 64.5875 80.9438C65.0576 80.6724 65.5968 80.553 66.2052 80.5856C66.8178 80.6185 67.3352 80.7884 67.7575 81.0953C68.184 81.4024 68.5003 81.8164 68.7063 82.3373C68.9168 82.8542 69.004 83.4482 68.968 84.1191L68.9451 84.5441L63.5446 84.2541L63.5913 83.3852L68.4355 83.6454L67.8553 84.4104L67.8785 83.9791C67.9069 83.4499 67.8511 83.0101 67.7111 82.6599C67.5711 82.3097 67.366 82.0438 67.0957 81.8621C66.8257 81.6763 66.5094 81.5736 66.1469 81.5541C65.7844 81.5347 65.4545 81.6068 65.1574 81.7705C64.8646 81.9303 64.6256 82.1787 64.4403 82.5156C64.2551 82.8525 64.1489 83.2731 64.1218 83.7773L64.0987 84.2086C64.0729 84.6878 64.1322 85.1026 64.2763 85.4531C64.4207 85.7993 64.638 86.0722 64.9282 86.2717C65.2186 86.467 65.568 86.5756 65.9763 86.5975C66.2805 86.6139 66.5474 86.5864 66.7769 86.5151C67.0064 86.4439 67.1975 86.3476 67.3503 86.2262C67.5031 86.1049 67.6122 85.9791 67.6777 85.8489L67.7058 85.794L68.7934 85.8524L68.7782 85.9017C68.7075 86.1278 68.5914 86.3451 68.4297 86.5538C68.2725 86.7584 68.0725 86.942 67.8297 87.1045C67.5872 87.2628 67.3027 87.3855 66.9762 87.4724C66.6541 87.5554 66.2952 87.5863 65.8993 87.565ZM70.4728 89.9483L70.9555 80.9599L72.0432 81.0183L71.9854 82.0934L72.0854 82.0988C72.2364 81.8561 72.4207 81.6529 72.6385 81.4891C72.8564 81.3211 73.1014 81.1963 73.3732 81.1148C73.645 81.0333 73.9372 81.0009 74.2498 81.0177C74.8206 81.0484 75.3087 81.2208 75.7139 81.5351C76.1235 81.8455 76.431 82.2674 76.6364 82.8008C76.8418 83.3342 76.9256 83.951 76.888 84.651L76.8874 84.6635C76.8495 85.3678 76.7 85.9741 76.4386 86.4824C76.1773 86.9908 75.8264 87.3773 75.3859 87.642C74.9496 87.9069 74.446 88.024 73.8751 87.9934C73.5667 87.9768 73.2776 87.9132 73.0077 87.8026C72.7422 87.6881 72.5079 87.5376 72.3048 87.3511C72.1059 87.1649 71.9504 86.9476 71.8383 86.6992L71.7383 86.6938L71.5604 90.0067L70.4728 89.9483ZM73.6768 87.0174C74.0893 87.0395 74.4468 86.9584 74.7492 86.7741C75.0519 86.5855 75.2904 86.3079 75.4647 85.9411C75.6434 85.5704 75.7468 85.1247 75.7748 84.6038L75.7754 84.5913C75.8036 84.0662 75.7486 83.6119 75.6104 83.2284C75.4764 82.8451 75.2689 82.5456 74.9879 82.3299C74.7072 82.11 74.3606 81.989 73.948 81.9669C73.5397 81.9449 73.1821 82.0281 72.8752 82.2164C72.5684 82.4047 72.3257 82.6821 72.1472 83.0486C71.9687 83.4152 71.8655 83.8589 71.8375 84.3798L71.8369 84.3923C71.8091 84.909 71.8642 85.3612 72.0022 85.7489C72.1404 86.1325 72.352 86.4343 72.6369 86.6543C72.9218 86.8744 73.2684 86.9954 73.6768 87.0174ZM78.5257 88.1241L78.8876 81.3859L79.9752 81.4443L79.7053 86.4698L80.2803 86.5007L79.5213 86.8611L83.4068 81.6286L84.4944 81.687L84.1325 88.4252L83.0449 88.3668L83.3148 83.3413L82.7397 83.3104L83.4988 82.95L79.6133 88.1825L78.5257 88.1241ZM90.7019 88.778L90.8657 85.7277L87.5279 85.5484L87.3641 88.5987L86.2765 88.5403L86.6384 81.8022L87.726 81.8606L87.5762 84.6484L90.9141 84.8276L91.0638 82.0398L92.1514 82.0983L91.7895 88.8364L90.7019 88.778ZM96.727 89.227C96.0395 89.1901 95.4706 89.0049 95.0205 88.6715C94.5705 88.3339 94.2431 87.8545 94.0383 87.2333C93.8376 86.6124 93.7614 85.8519 93.8098 84.9518L93.8105 84.9393C93.8586 84.0434 93.9645 83.278 94.1281 82.6432C94.292 82.0043 94.5205 81.4837 94.8138 81.0816C95.1114 80.6754 95.4805 80.3777 95.9211 80.1882C96.3659 79.9989 96.8891 79.9059 97.4908 79.9089L98.1675 79.9139C98.4391 79.916 98.7284 79.8981 99.0355 79.8602C99.3428 79.8182 99.6455 79.7467 99.9434 79.6457L99.8917 80.6083C99.7822 80.7027 99.5649 80.7788 99.2401 80.8366C98.9154 80.8902 98.5566 80.9169 98.1638 80.9167L97.4746 80.911C96.9526 80.9039 96.5158 80.9828 96.1642 81.1478C95.8169 81.313 95.5371 81.5801 95.3251 81.949C95.113 82.3179 94.9489 82.8064 94.8326 83.4145L94.8065 83.551L94.9065 83.5564C95.0752 83.2938 95.277 83.0769 95.5119 82.9056C95.7468 82.7343 96.0106 82.6085 96.3032 82.5281C96.6001 82.4479 96.9173 82.4169 97.2548 82.435C97.859 82.4675 98.3767 82.6332 98.8078 82.9322C99.2391 83.227 99.5623 83.6288 99.7774 84.1377C99.9966 84.6468 100.088 85.2409 100.052 85.9202L100.051 85.9327C100.013 86.6452 99.8523 87.2551 99.5702 87.7624C99.2924 88.2657 98.9106 88.6443 98.4247 88.8982C97.943 89.1523 97.3771 89.2619 96.727 89.227ZM96.7787 88.2644C97.2079 88.2874 97.5778 88.2091 97.8884 88.0294C98.2033 87.8457 98.4499 87.5727 98.6282 87.2103C98.8067 86.8438 98.91 86.398 98.9382 85.8729L98.9389 85.8604C98.966 85.3562 98.9097 84.9248 98.7702 84.5663C98.6306 84.2077 98.4137 83.9286 98.1193 83.7289C97.8294 83.5253 97.4698 83.412 97.0406 83.3889C96.6114 83.3659 96.2396 83.4399 95.9254 83.6111C95.6155 83.7783 95.372 84.0327 95.1948 84.3743C95.0177 84.7158 94.9156 85.1387 94.8885 85.6429L94.8878 85.6554C94.8596 86.1804 94.9146 86.6347 95.0528 87.0183C95.1913 87.3976 95.4051 87.6954 95.6944 87.9115C95.9881 88.1237 96.3495 88.2413 96.7787 88.2644ZM101.882 91.7481C101.812 91.7442 101.733 91.7358 101.646 91.7228C101.558 91.7139 101.477 91.7012 101.403 91.6847L101.451 90.7909C101.517 90.8069 101.59 90.8192 101.669 90.8276C101.747 90.836 101.824 90.8423 101.899 90.8463C102.208 90.8628 102.464 90.7972 102.669 90.6494C102.877 90.5018 103.052 90.2374 103.194 89.8564L103.34 89.4631L101.209 82.5847L102.371 82.6471L104.112 88.9842L103.717 88.2797L104.23 88.3073L103.762 88.9654L106.165 82.8509L107.309 82.9124L104.294 89.9217C104.083 90.4161 103.868 90.7995 103.649 91.0719C103.429 91.3443 103.179 91.5293 102.898 91.6271C102.621 91.7292 102.282 91.7695 101.882 91.7481ZM108.389 91.9847L108.872 82.9963L109.959 83.0547L109.902 84.1298L110.002 84.1352C110.153 83.8925 110.337 83.6893 110.555 83.5255C110.773 83.3575 111.018 83.2327 111.289 83.1512C111.561 83.0697 111.853 83.0373 112.166 83.0541C112.737 83.0848 113.225 83.2572 113.63 83.5715C114.04 83.8819 114.347 84.3038 114.553 84.8372C114.758 85.3706 114.842 85.9874 114.804 86.6874L114.804 86.6999C114.766 87.4042 114.616 88.0105 114.355 88.5188C114.094 89.0272 113.743 89.4137 113.302 89.6784C112.866 89.9433 112.362 90.0605 111.791 90.0298C111.483 90.0132 111.194 89.9497 110.924 89.839C110.659 89.7245 110.424 89.574 110.221 89.3876C110.022 89.2013 109.867 88.984 109.755 88.7356L109.655 88.7303L109.477 92.0431L108.389 91.9847ZM111.593 89.0538C112.006 89.0759 112.363 88.9948 112.666 88.8105C112.968 88.622 113.207 88.3443 113.381 87.9776C113.56 87.6069 113.663 87.1611 113.691 86.6402L113.692 86.6277C113.72 86.1026 113.665 85.6483 113.527 85.2648C113.393 84.8815 113.185 84.582 112.904 84.3663C112.623 84.1464 112.277 84.0254 111.864 84.0033C111.456 83.9813 111.098 84.0645 110.791 84.2528C110.485 84.4411 110.242 84.7185 110.064 85.0851C109.885 85.4516 109.782 85.8953 109.754 86.4162L109.753 86.4287C109.725 86.9454 109.781 87.3976 109.918 87.7853C110.057 88.1689 110.268 88.4707 110.553 88.6908C110.838 88.9108 111.185 89.0318 111.593 89.0538ZM121.068 84.554L117.843 84.3808L117.53 90.2189L116.442 90.1605L116.804 83.4223L121.117 83.6539L121.068 84.554Z" fill="white" /><path opacity="0.4" d="M37.4556 101.153C36.7972 101.118 36.2278 100.981 35.7475 100.742C35.2716 100.499 34.9 100.182 34.6326 99.7917C34.3696 99.3972 34.2283 98.955 34.2086 98.465L34.2061 98.3959L35.3312 98.4563L35.3337 98.5254C35.3468 98.827 35.4474 99.0936 35.6355 99.3252C35.8281 99.5529 36.0899 99.7362 36.4209 99.8752C36.7561 100.014 37.1404 100.096 37.5738 100.119C37.9822 100.141 38.3482 100.096 38.6718 99.9835C38.9999 99.8674 39.2618 99.6976 39.4577 99.4741C39.6536 99.2506 39.7597 98.9867 39.776 98.6825L39.7764 98.6763C39.7965 98.3012 39.6759 97.9792 39.4145 97.7103C39.1534 97.4371 38.716 97.2151 38.1025 97.0443L37.1142 96.7718C36.2207 96.5232 35.5788 96.1795 35.1887 95.7406C34.8029 95.2978 34.6276 94.7493 34.6627 94.0951L34.6631 94.0888C34.6941 93.589 34.8532 93.1546 35.1405 92.7855C35.432 92.4167 35.821 92.1367 36.3077 91.9455C36.7986 91.7546 37.3544 91.6758 37.9753 91.7091C38.5754 91.7413 39.1009 91.8782 39.5518 92.1197C40.0029 92.3571 40.3542 92.6643 40.6056 93.0414C40.8611 93.4187 40.9914 93.8332 40.9964 94.2848L40.998 94.3726L39.8728 94.3122L39.8647 94.2303C39.8374 93.9613 39.7417 93.7201 39.5776 93.5065C39.4138 93.2887 39.1893 93.1116 38.9041 92.9751C38.6189 92.8386 38.2803 92.7619 37.8884 92.745C37.5133 92.7249 37.1727 92.7651 36.8664 92.8657C36.5601 92.9662 36.3114 93.1221 36.1203 93.3334C35.9337 93.5406 35.8319 93.8026 35.8148 94.1193L35.8145 94.1256C35.7953 94.484 35.9124 94.7932 36.1659 95.0534C36.4194 95.3136 36.8488 95.5268 37.4542 95.693L38.4422 95.9718C39.0641 96.1431 39.5607 96.3495 39.9322 96.5909C40.3038 96.8324 40.5684 97.1182 40.7262 97.4485C40.8884 97.7748 40.9578 98.1547 40.9345 98.588L40.9342 98.5943C40.904 99.1568 40.7404 99.6349 40.4434 100.029C40.1465 100.422 39.7419 100.718 39.2298 100.916C38.7179 101.11 38.1265 101.189 37.4556 101.153ZM45.1553 101.354L42.3144 92.1553L43.4957 92.2187L45.7398 99.9243L45.8398 99.9297L48.8963 92.5088L50.0776 92.5722L46.2679 101.413L45.1553 101.354ZM54.6385 102.076C53.776 102.03 53.0466 101.798 52.4505 101.382C51.8545 100.961 51.4089 100.388 51.1136 99.6613C50.8225 98.9352 50.7026 98.093 50.7541 97.1345L50.7548 97.122C50.8067 96.1553 51.0182 95.3287 51.3894 94.6424C51.7648 93.9563 52.2711 93.4381 52.9084 93.0878C53.5499 92.7378 54.2957 92.5856 55.1458 92.6313C56 92.6772 56.7252 92.9084 57.3214 93.3249C57.9217 93.7416 58.3695 94.3131 58.6648 95.0394C58.9604 95.7615 59.0823 96.6039 59.0306 97.5665L59.0299 97.579C58.9784 98.5374 58.767 99.3619 58.3956 100.052C58.0286 100.739 57.5242 101.259 56.8825 101.614C56.2449 101.968 55.497 102.122 54.6385 102.076ZM54.6943 101.038C55.311 101.072 55.8505 100.948 56.3127 100.668C56.7749 100.387 57.1416 99.9788 57.4129 99.4417C57.6843 98.9005 57.84 98.259 57.8798 97.5172L57.8805 97.5047C57.9208 96.7547 57.8348 96.0981 57.6227 95.5351C57.4105 94.972 57.0896 94.5285 56.6598 94.2045C56.23 93.8806 55.7068 93.702 55.0901 93.6689C54.4775 93.636 53.9402 93.7576 53.4782 94.0337C53.0162 94.3098 52.6476 94.7162 52.3722 95.2531C52.1009 95.7901 51.9452 96.4337 51.9049 97.1838L51.9042 97.1963C51.8644 97.938 51.9483 98.5924 52.1561 99.1594C52.3641 99.7222 52.6828 100.168 53.1124 100.496C53.5419 100.824 54.0692 101.005 54.6943 101.038Z" fill="white" /><path d="M234.944 72.0802C233.944 72.0265 233.449 71.4482 233.492 70.6356C233.526 70.0106 233.758 69.6469 234.481 69.0338L240.287 63.8669C242.71 61.7152 243.334 60.8335 243.408 59.4583C243.494 57.8457 242.319 56.6166 240.582 56.5233C238.956 56.436 237.774 57.1999 237.05 58.7909C236.69 59.4235 236.296 59.7409 235.559 59.7013C234.684 59.6543 234.188 59.0885 234.231 58.2884C234.243 58.0509 234.293 57.8279 234.367 57.6187C234.959 55.6947 237.233 53.7482 240.746 53.9368C244.358 54.1309 246.731 56.4022 246.569 59.4275C246.455 61.5402 245.366 62.911 242.221 65.6758L237.865 69.529L237.861 69.5915L245.062 69.9782C245.912 70.0239 246.409 70.5771 246.366 71.3772C246.324 72.1648 245.77 72.6616 244.92 72.616L234.944 72.0802ZM255.352 73.5398C250.901 73.3008 248.445 69.5456 248.756 63.7575C249.065 57.9944 251.934 54.5378 256.36 54.7754C260.773 55.0125 263.243 58.7308 262.933 64.5064C262.623 70.282 259.79 73.7782 255.352 73.5398ZM255.493 70.902C257.931 71.033 259.452 68.6198 259.682 64.3443C259.909 60.1189 258.631 57.5428 256.218 57.4132C253.793 57.2829 252.233 59.7192 252.007 63.9196C251.777 68.195 253.043 70.7704 255.493 70.902ZM267.599 62.1367C266.586 62.0823 265.842 61.2399 265.895 60.2398C265.949 59.2397 266.78 58.4819 267.792 58.5363C268.792 58.59 269.537 59.4324 269.483 60.4325C269.429 61.4326 268.599 62.1904 267.599 62.1367ZM267.114 71.1626C266.101 71.1082 265.356 70.2783 265.411 69.2657C265.464 68.2656 266.295 67.5078 267.307 67.5622C268.308 67.6159 269.052 68.4583 268.998 69.4584C268.944 70.471 268.114 71.2163 267.114 71.1626ZM277.873 74.6365C276.935 74.5862 276.32 73.9012 276.372 72.9261L277.099 59.3872L277.037 59.3839L274.015 61.2526C273.691 61.4609 273.436 61.535 273.086 61.5162C272.411 61.4799 271.949 60.9662 271.988 60.2536C272.015 59.7536 272.235 59.3893 272.792 59.0431L276.619 56.6534C277.45 56.1338 277.956 56.0482 278.631 56.0844C279.768 56.1455 280.419 56.87 280.359 57.9826L279.547 73.0966C279.495 74.0717 278.81 74.6869 277.873 74.6365ZM290.53 75.4292C286.08 75.1902 283.624 71.435 283.934 65.6469C284.244 59.8838 287.113 56.4271 291.538 56.6648C295.951 56.9018 298.422 60.6202 298.112 66.3958C297.801 72.1713 294.968 75.6675 290.53 75.4292ZM290.672 72.7914C293.11 72.9223 294.631 70.5091 294.861 66.2337C295.087 62.0083 293.809 59.4322 291.396 59.3026C288.971 59.1723 287.411 61.6085 287.185 65.8089C286.956 70.0844 288.222 72.6598 290.672 72.7914Z" fill="white" /><path d="M251.149 97.3955L251.634 88.3758L252.94 88.446L255.624 96.1376L255.724 96.143L259.216 88.7831L260.522 88.8532L260.038 97.8729L258.988 97.8165L259.358 90.9283L258.807 90.8987L260.171 89.0851L256.069 97.6597L255.118 97.6087L251.964 88.6443L253.119 90.5933L252.569 90.5637L252.199 97.4519L251.149 97.3955ZM265.088 98.2632C264.45 98.229 263.906 98.0597 263.454 97.7555C263.007 97.4473 262.67 97.0259 262.444 96.4914C262.222 95.957 262.13 95.3315 262.168 94.6148L262.169 94.6023C262.208 93.8814 262.366 93.2672 262.644 92.7597C262.926 92.2525 263.306 91.8717 263.784 91.6174C264.266 91.3632 264.825 91.2533 265.463 91.2875C266.104 91.322 266.649 91.4912 267.097 91.7953C267.544 92.0993 267.879 92.5185 268.101 93.0528C268.327 93.5874 268.421 94.2151 268.382 94.936L268.382 94.9485C268.343 95.6652 268.183 96.2772 267.901 96.7844C267.623 97.2919 267.245 97.6749 266.767 97.9334C266.289 98.1877 265.73 98.2977 265.088 98.2632ZM265.14 97.3006C265.565 97.3235 265.931 97.2428 266.237 97.0587C266.544 96.8745 266.784 96.5991 266.959 96.2323C267.137 95.8658 267.241 95.4179 267.269 94.8887L267.27 94.8762C267.298 94.3428 267.244 93.8844 267.105 93.5008C266.971 93.1175 266.762 92.82 266.476 92.6082C266.191 92.3923 265.836 92.273 265.411 92.2501C264.986 92.2273 264.62 92.308 264.314 92.4921C264.007 92.672 263.765 92.9453 263.586 93.3118C263.412 93.6786 263.31 94.1287 263.282 94.662L263.281 94.6745C263.253 95.2038 263.305 95.66 263.44 96.0433C263.578 96.4269 263.789 96.7266 264.075 96.9425C264.36 97.1584 264.715 97.2778 265.14 97.3006ZM272.764 98.6755C272.135 98.6417 271.596 98.4686 271.149 98.1562C270.702 97.8439 270.366 97.4183 270.14 96.8796C269.914 96.3409 269.82 95.7153 269.858 95.0027L269.859 94.9902C269.896 94.2901 270.054 93.6885 270.332 93.1852C270.614 92.6821 270.994 92.3013 271.471 92.0428C271.949 91.7801 272.503 91.6657 273.132 91.6994C273.678 91.7288 274.144 91.8499 274.529 92.0628C274.915 92.2758 275.218 92.5512 275.438 92.889C275.658 93.2226 275.791 93.5912 275.836 93.9948L275.84 94.0327L274.759 93.9746L274.754 93.9555C274.688 93.6176 274.514 93.3241 274.231 93.0749C273.947 92.8256 273.564 92.688 273.081 92.662C272.676 92.6403 272.321 92.7236 272.014 92.9119C271.707 93.1002 271.462 93.3775 271.28 93.7438C271.101 94.1062 270.999 94.5416 270.971 95.05L270.971 95.0625C270.943 95.5792 271 96.0336 271.142 96.4257C271.284 96.8136 271.498 97.1197 271.782 97.344C272.067 97.5682 272.409 97.6911 272.809 97.7125C273.263 97.7369 273.64 97.6589 273.938 97.4785C274.236 97.2981 274.457 97.0237 274.602 96.6554L274.617 96.6186L275.692 96.6701L275.676 96.7382C275.563 97.1375 275.381 97.4892 275.131 97.7933C274.88 98.0933 274.559 98.3226 274.166 98.4812C273.773 98.6398 273.306 98.7046 272.764 98.6755ZM278.892 95.8076L278.548 95.7891L278.383 98.8582L277.296 98.7998L277.658 92.0616L278.745 92.12L278.594 94.939L278.938 94.9575L281.695 92.2785L283.002 92.3486L279.707 95.4502L279.718 95.2564L282.759 99.0932L281.365 99.0183L278.892 95.8076ZM284.259 99.1738L284.621 92.4356L287.477 92.589C288.115 92.6232 288.602 92.8103 288.939 93.1502C289.276 93.4859 289.431 93.9184 289.402 94.4476L289.402 94.4601C289.384 94.7935 289.263 95.0942 289.04 95.3622C288.817 95.626 288.545 95.7828 288.225 95.8324L288.219 95.9324C288.505 95.9854 288.748 96.0883 288.949 96.2412C289.15 96.3899 289.301 96.5735 289.402 96.7921C289.507 97.0067 289.553 97.2452 289.539 97.5078L289.538 97.5203C289.517 97.9078 289.407 98.2425 289.208 98.5244C289.01 98.802 288.733 99.0128 288.378 99.1568C288.028 99.2968 287.611 99.3538 287.128 99.3278L284.259 99.1738ZM285.395 98.3321L287.132 98.4254C287.545 98.4476 287.86 98.3746 288.078 98.2066C288.296 98.0345 288.415 97.7796 288.433 97.4421L288.433 97.4296C288.453 97.0712 288.346 96.8043 288.113 96.6288C287.88 96.4533 287.522 96.3526 287.038 96.3266L285.507 96.2444L285.395 98.3321ZM285.555 95.3443L286.993 95.4215C287.43 95.445 287.756 95.3789 287.969 95.2232C288.182 95.0674 288.297 94.8312 288.314 94.5145L288.315 94.502C288.33 94.2145 288.255 93.9785 288.09 93.7941C287.924 93.6055 287.652 93.5011 287.273 93.4807L285.66 93.3941L285.555 95.3443ZM293.122 99.7689C292.697 99.7461 292.318 99.6442 291.985 99.4633C291.656 99.2827 291.4 99.037 291.216 98.7262C291.036 98.4157 290.957 98.0562 290.979 97.6478L290.98 97.6353C291.001 97.2353 291.116 96.8987 291.323 96.6257C291.53 96.3484 291.821 96.1384 292.196 95.9956C292.572 95.8528 293.021 95.7808 293.543 95.7796L296.027 95.7625L295.98 96.6313L293.628 96.6555C293.114 96.6571 292.733 96.7432 292.486 96.9138C292.242 97.0846 292.112 97.3367 292.094 97.6701L292.093 97.6826C292.075 98.0243 292.19 98.2979 292.438 98.5035C292.686 98.7049 293.006 98.8161 293.398 98.8371C293.769 98.857 294.102 98.8018 294.397 98.6714C294.693 98.5368 294.929 98.3468 295.105 98.1013C295.285 97.8561 295.384 97.5731 295.401 97.2522L295.514 95.152C295.536 94.7353 295.426 94.4117 295.184 94.1814C294.946 93.9471 294.574 93.8164 294.07 93.7894C293.666 93.7676 293.331 93.8228 293.065 93.9548C292.799 94.0826 292.615 94.2754 292.513 94.5332L292.506 94.5516L291.418 94.4932L291.427 94.456C291.504 94.105 291.666 93.8044 291.914 93.5544C292.166 93.3005 292.483 93.1107 292.866 92.985C293.249 92.8551 293.68 92.803 294.159 92.8288C294.709 92.8583 295.169 92.9729 295.539 93.1724C295.913 93.3722 296.188 93.6461 296.366 93.9942C296.548 94.3383 296.627 94.7437 296.602 95.2104L296.354 99.8233L295.266 99.7649L295.32 98.7711L295.22 98.7657C295.065 98.9956 294.881 99.1884 294.668 99.3442C294.459 99.5001 294.225 99.615 293.966 99.6889C293.708 99.7585 293.426 99.7852 293.122 99.7689Z" fill="white" /><path opacity="0.4" d="M273.903 113.639L271.062 104.441L272.244 104.505L274.488 112.21L274.588 112.215L277.644 104.795L278.826 104.858L275.016 113.699L273.903 113.639ZM281.084 111.004L281.109 109.375L281.397 109.39L285.583 105.221L286.995 105.297L283.047 109.128L282.495 109.606L281.084 111.004ZM279.923 113.963L280.407 104.943L281.532 105.003L281.048 114.023L279.923 113.963ZM285.386 114.256L282.258 109.581L283.075 108.841L286.842 114.334L285.386 114.256ZM291.637 114.805C290.775 114.759 290.045 114.527 289.449 114.111C288.853 113.69 288.408 113.117 288.112 112.39C287.821 111.664 287.701 110.822 287.753 109.863L287.754 109.851C287.805 108.884 288.017 108.058 288.388 107.371C288.764 106.685 289.27 106.167 289.907 105.817C290.549 105.467 291.294 105.315 292.145 105.36C292.999 105.406 293.724 105.637 294.32 106.054C294.92 106.47 295.368 107.042 295.664 107.768C295.959 108.49 296.081 109.333 296.029 110.295L296.029 110.308C295.977 111.266 295.766 112.091 295.394 112.781C295.027 113.468 294.523 113.988 293.881 114.342C293.244 114.697 292.496 114.851 291.637 114.805ZM291.693 113.767C292.31 113.8 292.849 113.677 293.311 113.397C293.774 113.116 294.14 112.708 294.412 112.171C294.683 111.629 294.839 110.988 294.879 110.246L294.879 110.234C294.92 109.484 294.834 108.827 294.621 108.264C294.409 107.701 294.088 107.257 293.659 106.933C293.229 106.609 292.706 106.431 292.089 106.398C291.476 106.365 290.939 106.487 290.477 106.763C290.015 107.039 289.646 107.445 289.371 107.982C289.1 108.519 288.944 109.163 288.904 109.913L288.903 109.925C288.863 110.667 288.947 111.321 289.155 111.888C289.363 112.451 289.682 112.897 290.111 113.225C290.541 113.553 291.068 113.734 291.693 113.767Z" fill="white" /><circle cx="127.651" cy="55.7244" r="0.801233" transform="rotate(3.0743 127.651 55.7244)" fill="white" /><circle cx="139.652" cy="56.3689" r="0.801233" transform="rotate(3.0743 139.652 56.3689)" fill="white" /><circle cx="151.653" cy="57.0135" r="0.801233" transform="rotate(3.0743 151.653 57.0135)" fill="white" /><circle cx="163.654" cy="57.658" r="0.801233" transform="rotate(3.0743 163.654 57.658)" fill="white" /><circle cx="175.656" cy="58.3025" r="0.801233" transform="rotate(3.0743 175.656 58.3025)" fill="white" /><circle cx="187.657" cy="58.9475" r="0.801233" transform="rotate(3.0743 187.657 58.9475)" fill="white" /><circle cx="199.658" cy="59.5916" r="0.801233" transform="rotate(3.0743 199.658 59.5916)" fill="white" /><circle cx="211.659" cy="60.2361" r="0.801233" transform="rotate(3.0743 211.659 60.2361)" fill="white" /><circle cx="223.66" cy="60.8811" r="0.801233" transform="rotate(3.0743 223.66 60.8811)" fill="white" /><path d="M170.337 58.3711C170.325 58.5976 170.22 58.7958 170.023 58.9654C169.826 59.1311 169.568 59.2583 169.25 59.347C168.932 59.4318 168.588 59.4642 168.217 59.4443L165.855 59.3175C165.691 59.3087 165.565 59.3195 165.477 59.3501C165.393 59.3808 165.299 59.4483 165.196 59.5524L161.027 63.6421C160.891 63.7758 160.736 63.8381 160.564 63.8288L159.885 63.7923C159.811 63.7883 159.755 63.756 159.72 63.6953C159.688 63.6348 159.693 63.5646 159.737 63.4847L162.005 59.1107L159.046 58.6109L157.881 60.4995C157.796 60.632 157.659 60.6932 157.472 60.6832L157.22 60.6696C157.146 60.6656 157.086 60.6409 157.042 60.5954C156.997 60.546 156.977 60.4842 156.981 60.41L157.276 54.9133C157.28 54.8352 157.307 54.7759 157.356 54.7355C157.406 54.6911 157.468 54.6709 157.542 54.6749L157.794 54.6884C157.981 54.6985 158.11 54.776 158.181 54.9208L159.137 56.9233L162.132 56.7433L160.345 52.1515C160.311 52.0674 160.313 51.9969 160.351 51.9402C160.393 51.8837 160.451 51.8575 160.526 51.8615L161.205 51.898C161.377 51.9072 161.524 51.9856 161.645 52.1332L165.352 56.64C165.444 56.7546 165.53 56.8337 165.61 56.8772C165.694 56.9169 165.818 56.9412 165.982 56.95L168.344 57.0769C168.715 57.0968 169.054 57.1679 169.361 57.2902C169.668 57.4085 169.91 57.5626 170.088 57.7524C170.266 57.9382 170.349 58.1445 170.337 58.3711Z" fill="white" /><path opacity="0.53" d="M35.0815 135.091L35.5115 127.084L32.605 126.928L32.6594 125.915L39.5976 126.288L39.5432 127.301L36.6366 127.145L36.2066 135.152L35.0815 135.091ZM42.7071 135.62C42.0654 135.585 41.5209 135.414 41.0735 135.106C40.6304 134.798 40.2977 134.379 40.0754 133.849C39.8575 133.315 39.7675 132.695 39.8053 131.991L39.8056 131.985C39.843 131.289 39.9987 130.685 40.2728 130.173C40.551 129.662 40.9252 129.27 41.3953 128.999C41.8654 128.727 42.4046 128.608 43.013 128.641C43.6256 128.673 44.143 128.843 44.5653 129.15C44.9918 129.457 45.3081 129.871 45.5142 130.392C45.7246 130.909 45.8118 131.503 45.7758 132.174L45.7529 132.599L40.3524 132.309L40.3991 131.44L45.2433 131.7L44.6631 132.465L44.6863 132.034C44.7147 131.505 44.6589 131.065 44.5189 130.715C44.3789 130.365 44.1738 130.099 43.9036 129.917C43.6335 129.731 43.3173 129.628 42.9547 129.609C42.5922 129.59 42.2624 129.662 41.9652 129.825C41.6724 129.985 41.4334 130.234 41.2482 130.57C41.0629 130.907 40.9567 131.328 40.9297 131.832L40.9065 132.263C40.8808 132.743 40.94 133.158 41.0841 133.508C41.2285 133.854 41.4458 134.127 41.736 134.327C42.0264 134.522 42.3758 134.63 42.7842 134.652C43.0884 134.669 43.3552 134.641 43.5847 134.57C43.8142 134.499 44.0053 134.402 44.1581 134.281C44.3109 134.16 44.4201 134.034 44.4856 133.904L44.5136 133.849L45.6012 133.907L45.586 133.957C45.5154 134.183 45.3992 134.4 45.2376 134.609C45.0803 134.813 44.8803 134.997 44.6375 135.159C44.395 135.318 44.1105 135.44 43.784 135.527C43.462 135.61 43.103 135.641 42.7071 135.62ZM47.2806 138.003L47.7634 129.015L48.851 129.073L48.7932 130.148L48.8932 130.154C49.0442 129.911 49.2285 129.708 49.4463 129.544C49.6643 129.376 49.9092 129.251 50.181 129.17C50.4528 129.088 50.745 129.056 51.0576 129.073C51.6285 129.103 52.1165 129.276 52.5217 129.59C52.9313 129.9 53.2388 130.322 53.4442 130.856C53.6496 131.389 53.7335 132.006 53.6959 132.706L53.6952 132.718C53.6574 133.423 53.5078 134.029 53.2465 134.537C52.9851 135.046 52.6342 135.432 52.1937 135.697C51.7574 135.962 51.2538 136.079 50.6829 136.048C50.3746 136.032 50.0854 135.968 49.8155 135.857C49.5501 135.743 49.3158 135.592 49.1126 135.406C48.9137 135.22 48.7582 135.002 48.6462 134.754L48.5461 134.749L48.3682 138.062L47.2806 138.003ZM50.4846 135.072C50.8971 135.094 51.2546 135.013 51.5571 134.829C51.8597 134.64 52.0982 134.363 52.2725 133.996C52.4513 133.625 52.5546 133.18 52.5826 132.659L52.5832 132.646C52.6114 132.121 52.5564 131.667 52.4182 131.283C52.2842 130.9 52.0767 130.6 51.7957 130.385C51.515 130.165 51.1684 130.044 50.7558 130.022C50.3475 130 49.9899 130.083 49.683 130.271C49.3762 130.46 49.1335 130.737 48.9551 131.104C48.7766 131.47 48.6733 131.914 48.6454 132.435L48.6447 132.447C48.6169 132.964 48.672 133.416 48.81 133.804C48.9482 134.187 49.1598 134.489 49.4447 134.709C49.7296 134.929 50.0762 135.05 50.4846 135.072ZM56.4211 136.237L55.3335 136.179L55.6954 129.441L57.0143 129.512L59.1339 134.866L59.2339 134.871L61.9273 129.775L63.1899 129.843L62.828 136.581L61.7404 136.523L61.9979 131.729L61.8791 131.722L59.5065 136.215L58.6689 136.17L56.7974 131.449L56.6786 131.443L56.4211 136.237ZM64.972 136.697L65.3339 129.958L66.4215 130.017L66.1516 135.042L66.7266 135.073L65.9676 135.434L69.8531 130.201L70.9407 130.26L70.5788 136.998L69.4912 136.939L69.7611 131.914L69.186 131.883L69.9451 131.523L66.0596 136.755L64.972 136.697ZM77.1482 137.351L77.312 134.3L73.9742 134.121L73.8103 137.171L72.7227 137.113L73.0846 130.375L74.1722 130.433L74.0225 133.221L77.3603 133.4L77.5101 130.612L78.5977 130.671L78.2358 137.409L77.1482 137.351ZM82.2236 137.742C81.7985 137.719 81.4195 137.618 81.0865 137.437C80.7577 137.256 80.5014 137.01 80.3175 136.7C80.1377 136.389 80.0588 136.03 80.0808 135.621L80.0814 135.609C80.1029 135.209 80.2171 134.872 80.424 134.599C80.6311 134.322 80.9224 134.112 81.2979 133.969C81.6733 133.826 82.1222 133.754 82.6447 133.753L85.128 133.736L85.0813 134.605L82.7293 134.629C82.2152 134.63 81.8344 134.717 81.587 134.887C81.3438 135.058 81.2133 135.31 81.1954 135.643L81.1947 135.656C81.1764 135.998 81.2912 136.271 81.5393 136.477C81.7876 136.678 82.1076 136.789 82.4993 136.81C82.8701 136.83 83.2033 136.775 83.4986 136.645C83.7942 136.51 84.0301 136.32 84.2062 136.075C84.3866 135.829 84.4854 135.546 84.5026 135.226L84.6154 133.125C84.6378 132.709 84.5277 132.385 84.2851 132.155C84.047 131.92 83.6758 131.79 83.1716 131.763C82.7674 131.741 82.4322 131.796 82.166 131.928C81.9 132.056 81.7162 132.249 81.6146 132.507L81.6073 132.525L80.5197 132.467L80.528 132.429C80.6054 132.078 80.7678 131.778 81.0152 131.528C81.2671 131.274 81.5844 131.084 81.9673 130.958C82.3504 130.828 82.7816 130.776 83.2608 130.802C83.8108 130.832 84.2706 130.946 84.6402 131.146C85.014 131.346 85.2897 131.619 85.4674 131.968C85.6495 132.312 85.7281 132.717 85.703 133.184L85.4553 137.797L84.3676 137.738L84.421 136.744L84.321 136.739C84.1666 136.969 83.9828 137.162 83.7696 137.318C83.5607 137.473 83.3267 137.588 83.0678 137.662C82.8092 137.732 82.5277 137.759 82.2236 137.742ZM89.2848 135.357C89.2058 135.971 89.0806 136.474 88.9091 136.866C88.7418 137.259 88.5238 137.544 88.2551 137.721C87.9906 137.899 87.6709 137.978 87.2958 137.958C87.1792 137.952 87.0796 137.938 86.9971 137.917C86.9145 137.9 86.8507 137.882 86.8057 137.863L86.8584 136.882C86.8872 136.892 86.9387 136.905 87.013 136.921C87.0876 136.934 87.1644 136.942 87.2436 136.946C87.452 136.957 87.625 136.887 87.7627 136.736C87.9004 136.584 88.0097 136.377 88.0907 136.114C88.1761 135.847 88.2382 135.547 88.2769 135.215L88.7799 131.218L93.1866 131.454L92.8247 138.193L91.7371 138.134L92.0507 132.296L89.7067 132.17L89.2848 135.357Z" fill="white" /><path d="M31.7898 150.738L32.2743 141.719L35.6559 141.9C36.5518 141.948 37.305 142.164 37.9154 142.548C38.53 142.932 38.9861 143.467 39.2836 144.151C39.5853 144.836 39.7109 145.649 39.6603 146.591L39.6597 146.604C39.608 147.566 39.3972 148.378 39.0273 149.04C38.6577 149.697 38.1466 150.187 37.4939 150.512C36.8457 150.832 36.0715 150.968 35.1714 150.92L31.7898 150.738ZM33.4753 149.469L35.0318 149.552C35.6276 149.584 36.1426 149.488 36.5767 149.265C37.0108 149.042 37.3488 148.701 37.5908 148.241C37.8369 147.782 37.9781 147.215 38.0144 146.54L38.0151 146.528C38.0504 145.869 37.9681 145.301 37.7682 144.822C37.5726 144.339 37.271 143.964 36.8633 143.695C36.4557 143.427 35.958 143.277 35.3705 143.245L33.8141 143.162L33.4753 149.469Z" fill="white" /><path opacity="0.53" d="M114.281 136.117L114.335 135.117L116.885 135.254C117.531 135.288 118.04 135.149 118.412 134.834C118.784 134.516 118.986 134.061 119.018 133.469L119.019 133.456C119.051 132.86 118.899 132.386 118.562 132.034C118.226 131.682 117.735 131.488 117.089 131.453L114.539 131.316L114.593 130.316L117.43 130.469C117.997 130.499 118.491 130.647 118.911 130.912C119.331 131.177 119.653 131.532 119.876 131.979C120.102 132.426 120.2 132.935 120.17 133.506L120.169 133.518C120.138 134.089 119.986 134.587 119.713 135.011C119.443 135.435 119.085 135.758 118.639 135.981C118.192 136.204 117.686 136.3 117.119 136.269L114.281 136.117ZM113.546 139.306L114.03 130.286L115.155 130.346L114.671 139.366L113.546 139.306ZM124.29 140.002C123.649 139.967 123.104 139.796 122.657 139.488C122.214 139.18 121.881 138.761 121.659 138.231C121.441 137.697 121.351 137.077 121.388 136.373L121.389 136.367C121.426 135.671 121.582 135.067 121.856 134.555C122.134 134.044 122.508 133.652 122.978 133.381C123.449 133.109 123.988 132.99 124.596 133.022C125.209 133.055 125.726 133.225 126.149 133.532C126.575 133.839 126.891 134.253 127.097 134.774C127.308 135.291 127.395 135.885 127.359 136.556L127.336 136.981L121.936 136.691L121.982 135.822L126.826 136.082L126.246 136.847L126.269 136.416C126.298 135.887 126.242 135.447 126.102 135.097C125.962 134.747 125.757 134.481 125.487 134.299C125.217 134.113 124.9 134.01 124.538 133.991C124.175 133.972 123.846 134.044 123.548 134.207C123.256 134.367 123.017 134.616 122.831 134.952C122.646 135.289 122.54 135.71 122.513 136.214L122.49 136.645C122.464 137.125 122.523 137.539 122.667 137.89C122.812 138.236 123.029 138.509 123.319 138.709C123.61 138.904 123.959 139.012 124.367 139.034C124.672 139.051 124.938 139.023 125.168 138.952C125.397 138.881 125.589 138.784 125.741 138.663C125.894 138.542 126.003 138.416 126.069 138.286L126.097 138.231L127.184 138.289L127.169 138.339C127.099 138.565 126.982 138.782 126.821 138.991C126.663 139.195 126.463 139.379 126.221 139.541C125.978 139.7 125.694 139.822 125.367 139.909C125.045 139.992 124.686 140.023 124.29 140.002ZM133.605 134.528L130.38 134.355L130.066 140.193L128.978 140.135L129.34 133.396L133.653 133.628L133.605 134.528ZM134.929 140.454L135.291 133.716L136.378 133.774L136.109 138.8L136.684 138.831L135.925 139.191L139.81 133.959L140.898 134.017L140.536 140.755L139.448 140.697L139.718 135.671L139.143 135.64L139.902 135.28L136.017 140.513L134.929 140.454ZM145.436 141.138C144.807 141.104 144.269 140.931 143.822 140.618C143.375 140.306 143.038 139.88 142.812 139.342C142.586 138.803 142.492 138.177 142.53 137.465L142.531 137.452C142.569 136.752 142.726 136.151 143.004 135.647C143.286 135.144 143.666 134.763 144.144 134.505C144.622 134.242 145.175 134.128 145.805 134.162C146.35 134.191 146.816 134.312 147.202 134.525C147.587 134.738 147.89 135.013 148.11 135.351C148.331 135.685 148.463 136.053 148.508 136.457L148.513 136.495L147.431 136.437L147.426 136.418C147.361 136.08 147.186 135.786 146.903 135.537C146.62 135.288 146.236 135.15 145.753 135.124C145.349 135.102 144.993 135.186 144.686 135.374C144.379 135.562 144.135 135.84 143.952 136.206C143.774 136.568 143.671 137.004 143.644 137.512L143.643 137.525C143.615 138.041 143.672 138.496 143.814 138.888C143.956 139.276 144.17 139.582 144.455 139.806C144.739 140.03 145.082 140.153 145.482 140.175C145.936 140.199 146.312 140.121 146.61 139.941C146.908 139.76 147.13 139.486 147.275 139.118L147.289 139.081L148.365 139.132L148.349 139.2C148.235 139.6 148.053 139.951 147.803 140.255C147.553 140.555 147.231 140.785 146.838 140.943C146.445 141.102 145.978 141.167 145.436 141.138ZM154.899 134.769L154.851 135.669L152.669 135.552L152.356 141.39L151.268 141.332L151.582 135.494L149.4 135.376L149.449 134.476L154.899 134.769ZM155.991 143.842L156.474 134.854L157.562 134.912L157.504 135.987L157.604 135.993C157.755 135.75 157.939 135.547 158.157 135.383C158.375 135.215 158.62 135.09 158.892 135.009C159.164 134.927 159.456 134.895 159.768 134.912C160.339 134.942 160.827 135.115 161.233 135.429C161.642 135.739 161.95 136.161 162.155 136.695C162.36 137.228 162.444 137.845 162.407 138.545L162.406 138.557C162.368 139.262 162.219 139.868 161.957 140.376C161.696 140.885 161.345 141.271 160.905 141.536C160.468 141.801 159.965 141.918 159.394 141.887C159.085 141.871 158.796 141.807 158.526 141.696C158.261 141.582 158.027 141.431 157.824 141.245C157.625 141.059 157.469 140.841 157.357 140.593L157.257 140.588L157.079 143.9L155.991 143.842ZM159.195 140.911C159.608 140.933 159.966 140.852 160.268 140.668C160.571 140.479 160.809 140.202 160.983 139.835C161.162 139.464 161.265 139.018 161.293 138.498L161.294 138.485C161.322 137.96 161.267 137.506 161.129 137.122C160.995 136.739 160.788 136.439 160.507 136.224C160.226 136.004 159.879 135.883 159.467 135.861C159.058 135.839 158.701 135.922 158.394 136.11C158.087 136.299 157.844 136.576 157.666 136.942C157.487 137.309 157.384 137.753 157.356 138.274L157.356 138.286C157.328 138.803 157.383 139.255 157.521 139.643C157.659 140.026 157.871 140.328 158.156 140.548C158.44 140.768 158.787 140.889 159.195 140.911ZM165.894 142.236C165.469 142.214 165.09 142.112 164.757 141.931C164.429 141.75 164.172 141.504 163.988 141.194C163.809 140.883 163.73 140.524 163.752 140.115L163.752 140.103C163.774 139.703 163.888 139.366 164.095 139.093C164.302 138.816 164.593 138.606 164.969 138.463C165.344 138.32 165.793 138.248 166.316 138.247L168.799 138.23L168.752 139.099L166.4 139.123C165.886 139.125 165.505 139.211 165.258 139.381C165.015 139.552 164.884 139.804 164.866 140.138L164.866 140.15C164.847 140.492 164.962 140.765 165.21 140.971C165.458 141.172 165.778 141.284 166.17 141.305C166.541 141.325 166.874 141.269 167.17 141.139C167.465 141.004 167.701 140.814 167.877 140.569C168.057 140.324 168.156 140.041 168.173 139.72L168.286 137.619C168.309 137.203 168.199 136.879 167.956 136.649C167.718 136.415 167.347 136.284 166.842 136.257C166.438 136.235 166.103 136.29 165.837 136.422C165.571 136.55 165.387 136.743 165.285 137.001L165.278 137.019L164.191 136.961L164.199 136.923C164.276 136.572 164.439 136.272 164.686 136.022C164.938 135.768 165.255 135.578 165.638 135.452C166.021 135.323 166.452 135.27 166.932 135.296C167.482 135.326 167.942 135.44 168.311 135.64C168.685 135.84 168.961 136.114 169.138 136.462C169.32 136.806 169.399 137.211 169.374 137.678L169.126 142.291L168.039 142.232L168.092 141.239L167.992 141.233C167.837 141.463 167.654 141.656 167.441 141.812C167.232 141.968 166.998 142.082 166.739 142.156C166.48 142.226 166.199 142.253 165.894 142.236ZM177.045 135.959L176.683 142.697L171.233 142.404L171.594 135.666L172.682 135.724L172.369 141.562L175.644 141.738L175.957 135.9L177.045 135.959ZM176.625 144.48L176.721 142.699L175.608 142.639L175.656 141.739L177.807 141.854L177.663 144.536L176.625 144.48ZM179.171 142.83L179.533 136.092L180.62 136.151L180.35 141.176L180.926 141.207L180.166 141.567L184.052 136.335L185.14 136.393L184.778 143.131L183.69 143.073L183.96 138.048L183.385 138.017L184.144 137.656L180.258 142.889L179.171 142.83ZM190.497 143.439L190.627 141.026L189.483 140.964L187.634 143.285L186.353 143.216L188.375 140.704C187.907 140.545 187.546 140.292 187.293 139.944C187.04 139.596 186.926 139.193 186.951 138.735L186.952 138.722C186.976 138.26 187.102 137.869 187.328 137.551C187.554 137.229 187.862 136.989 188.25 136.83C188.639 136.671 189.09 136.605 189.603 136.633L191.947 136.759L191.585 143.497L190.497 143.439ZM189.419 140.058L190.675 140.126L190.811 137.601L189.554 137.533C189.112 137.509 188.758 137.605 188.492 137.821C188.23 138.037 188.087 138.349 188.065 138.757L188.065 138.769C188.046 139.124 188.155 139.422 188.393 139.665C188.635 139.903 188.977 140.035 189.419 140.058Z" fill="white" /><path d="M115.789 155.432C115.097 155.395 114.492 155.251 113.975 155.002C113.458 154.749 113.06 154.418 112.781 154.01C112.506 153.598 112.383 153.136 112.41 152.624L112.411 152.611C112.432 152.224 112.536 151.878 112.723 151.575C112.915 151.268 113.171 151.014 113.491 150.814C113.811 150.614 114.174 150.485 114.578 150.427L114.58 150.39C114.071 150.224 113.667 149.956 113.369 149.585C113.076 149.21 112.942 148.78 112.968 148.297L112.969 148.285C112.994 147.822 113.152 147.417 113.442 147.069C113.736 146.721 114.129 146.456 114.619 146.273C115.114 146.091 115.672 146.016 116.292 146.05C116.913 146.083 117.458 146.217 117.926 146.451C118.398 146.685 118.76 146.991 119.011 147.368C119.263 147.745 119.376 148.165 119.351 148.627L119.35 148.64C119.324 149.123 119.145 149.536 118.814 149.877C118.482 150.215 118.054 150.438 117.53 150.548L117.528 150.586C117.924 150.686 118.27 150.853 118.567 151.086C118.864 151.32 119.089 151.599 119.243 151.925C119.401 152.247 119.47 152.602 119.449 152.989L119.448 153.002C119.421 153.514 119.246 153.96 118.925 154.34C118.608 154.716 118.179 155.002 117.638 155.199C117.097 155.391 116.48 155.469 115.789 155.432ZM115.855 154.2C116.217 154.22 116.539 154.174 116.821 154.064C117.107 153.95 117.335 153.785 117.506 153.568C117.677 153.348 117.77 153.093 117.785 152.806L117.786 152.793C117.801 152.502 117.736 152.239 117.59 152.006C117.448 151.768 117.241 151.577 116.969 151.433C116.696 151.289 116.379 151.207 116.016 151.188C115.65 151.168 115.323 151.215 115.037 151.329C114.755 151.444 114.529 151.611 114.358 151.832C114.188 152.048 114.095 152.303 114.079 152.594L114.078 152.607C114.063 152.894 114.128 153.157 114.274 153.395C114.425 153.628 114.634 153.817 114.902 153.961C115.175 154.101 115.492 154.181 115.855 154.2ZM116.083 149.956C116.399 149.973 116.679 149.932 116.923 149.832C117.171 149.728 117.367 149.58 117.511 149.387C117.659 149.195 117.741 148.965 117.755 148.698L117.756 148.686C117.77 148.423 117.713 148.188 117.587 147.981C117.464 147.774 117.285 147.607 117.049 147.482C116.814 147.356 116.539 147.285 116.227 147.268C115.91 147.251 115.628 147.293 115.38 147.392C115.137 147.492 114.941 147.638 114.793 147.831C114.648 148.024 114.569 148.251 114.555 148.514L114.555 148.526C114.54 148.793 114.594 149.03 114.717 149.237C114.844 149.445 115.023 149.613 115.254 149.742C115.49 149.868 115.766 149.939 116.083 149.956ZM121.25 152.603L121.326 151.191L125.501 151.415L125.425 152.828L121.25 152.603ZM130.884 146.789C131.367 146.815 131.821 146.93 132.244 147.132C132.668 147.33 133.037 147.626 133.35 148.019C133.668 148.408 133.907 148.899 134.067 149.493C134.228 150.082 134.286 150.786 134.242 151.602L134.242 151.615C134.187 152.627 133.995 153.486 133.664 154.192C133.334 154.897 132.885 155.429 132.319 155.787C131.756 156.141 131.098 156.298 130.344 156.257C129.79 156.228 129.295 156.101 128.86 155.877C128.429 155.649 128.077 155.35 127.805 154.98C127.536 154.606 127.365 154.188 127.289 153.724L127.28 153.654L128.862 153.739L128.883 153.803C128.951 154.016 129.054 154.205 129.191 154.371C129.333 154.538 129.506 154.67 129.709 154.769C129.917 154.864 130.153 154.918 130.415 154.932C130.89 154.958 131.285 154.839 131.6 154.576C131.92 154.309 132.167 153.944 132.342 153.481C132.522 153.014 132.638 152.494 132.689 151.92C132.697 151.858 132.702 151.797 132.705 151.739C132.709 151.677 132.712 151.616 132.715 151.558L132.515 150.036C132.533 149.695 132.471 149.38 132.327 149.092C132.184 148.805 131.981 148.572 131.719 148.395C131.461 148.218 131.163 148.121 130.826 148.103C130.501 148.085 130.199 148.148 129.919 148.292C129.64 148.436 129.411 148.641 129.234 148.907C129.057 149.169 128.959 149.469 128.941 149.807L128.941 149.819C128.922 150.169 128.982 150.484 129.122 150.763C129.262 151.038 129.461 151.26 129.719 151.428C129.978 151.597 130.278 151.69 130.62 151.709C130.961 151.727 131.272 151.668 131.55 151.533C131.829 151.397 132.055 151.201 132.228 150.942C132.401 150.684 132.496 150.386 132.514 150.049L132.515 150.036L132.89 150.057L132.8 151.719L132.582 151.707C132.461 151.939 132.288 152.151 132.065 152.344C131.841 152.537 131.57 152.687 131.251 152.796C130.936 152.904 130.57 152.947 130.153 152.925C129.578 152.894 129.077 152.737 128.649 152.455C128.221 152.173 127.892 151.8 127.662 151.337C127.436 150.873 127.338 150.358 127.369 149.791L127.369 149.779C127.402 149.166 127.573 148.63 127.882 148.17C128.195 147.706 128.611 147.353 129.13 147.109C129.653 146.861 130.238 146.755 130.884 146.789ZM142.137 156.803C141.45 156.766 140.87 156.593 140.397 156.283C139.925 155.974 139.574 155.545 139.344 154.998C139.115 154.451 139.02 153.806 139.06 153.065L139.06 153.052C139.1 152.315 139.263 151.69 139.549 151.179C139.836 150.668 140.231 150.286 140.733 150.033C141.236 149.776 141.829 149.665 142.512 149.702C143.1 149.734 143.599 149.863 144.009 150.09C144.423 150.312 144.743 150.61 144.97 150.981C145.201 151.349 145.333 151.772 145.366 152.25L145.364 152.275L143.895 152.196L143.89 152.177C143.837 151.84 143.689 151.558 143.447 151.332C143.208 151.106 142.876 150.982 142.451 150.959C142.097 150.94 141.788 151.013 141.524 151.178C141.264 151.344 141.059 151.592 140.907 151.923C140.756 152.253 140.667 152.658 140.642 153.137L140.641 153.15C140.615 153.633 140.659 154.051 140.774 154.404C140.893 154.753 141.073 155.026 141.313 155.223C141.554 155.416 141.851 155.521 142.205 155.54C142.609 155.562 142.939 155.488 143.195 155.318C143.455 155.148 143.642 154.886 143.757 154.533L143.771 154.509L145.234 154.581L145.225 154.637C145.125 155.095 144.941 155.493 144.672 155.83C144.407 156.166 144.063 156.422 143.64 156.595C143.218 156.765 142.716 156.834 142.137 156.803ZM152.031 150.345L151.966 151.551L149.86 151.438L149.558 157.064L148.001 156.98L148.304 151.355L146.203 151.242L146.268 150.035L152.031 150.345ZM155.87 157.541C155.191 157.504 154.613 157.331 154.136 157.021C153.66 156.707 153.303 156.279 153.064 155.735C152.83 155.192 152.733 154.551 152.773 153.814L152.773 153.801C152.813 153.072 152.98 152.45 153.275 151.935C153.57 151.416 153.969 151.028 154.472 150.771C154.979 150.514 155.572 150.403 156.251 150.44C156.93 150.476 157.506 150.649 157.979 150.959C158.455 151.269 158.812 151.695 159.051 152.239C159.289 152.782 159.388 153.421 159.349 154.154L159.348 154.167C159.309 154.904 159.141 155.531 158.846 156.046C158.555 156.561 158.156 156.949 157.649 157.21C157.146 157.467 156.553 157.577 155.87 157.541ZM155.938 156.278C156.296 156.297 156.605 156.224 156.865 156.058C157.129 155.889 157.337 155.638 157.488 155.308C157.64 154.974 157.728 154.567 157.754 154.087L157.755 154.075C157.781 153.592 157.736 153.178 157.621 152.833C157.506 152.484 157.326 152.213 157.082 152.02C156.841 151.824 156.542 151.716 156.184 151.696C155.825 151.677 155.514 151.752 155.25 151.922C154.986 152.087 154.779 152.338 154.627 152.672C154.475 153.002 154.387 153.409 154.361 153.893L154.36 153.905C154.334 154.384 154.379 154.798 154.494 155.147C154.609 155.496 154.787 155.767 155.027 155.96C155.272 156.152 155.575 156.258 155.938 156.278ZM160.846 157.67L161.213 150.838L162.751 150.921L162.505 155.496L163.312 155.539L162.217 156.082L165.758 151.082L167.289 151.164L166.922 157.996L165.391 157.914L165.638 153.314L164.831 153.27L165.914 152.72L162.384 157.753L160.846 157.67ZM164.308 150.07C163.849 150.046 163.452 149.932 163.116 149.73C162.784 149.529 162.531 149.262 162.356 148.931C162.182 148.6 162.106 148.228 162.128 147.816L163.353 147.881C163.339 148.219 163.422 148.514 163.6 148.766C163.779 149.014 164.031 149.146 164.356 149.164C164.69 149.182 164.956 149.077 165.157 148.85C165.357 148.618 165.469 148.333 165.491 147.996L166.716 148.062C166.694 148.474 166.578 148.836 166.369 149.147C166.16 149.457 165.878 149.695 165.522 149.86C165.171 150.025 164.766 150.095 164.308 150.07ZM171 155.256L170.65 155.238L170.491 158.188L168.935 158.104L169.302 151.272L170.858 151.356L170.711 154.1L171.042 154.118L173.446 151.495L175.234 151.591L172.188 154.719L172.202 154.468L174.998 158.43L173.116 158.329L171 155.256ZM176.386 158.505L176.752 151.673L178.29 151.755L178.044 156.331L178.851 156.374L177.756 156.917L181.297 151.917L182.828 151.999L182.461 158.831L180.93 158.749L181.177 154.148L180.371 154.105L181.453 153.555L177.923 158.587L176.386 158.505Z" fill="white" /><rect x="252.723" y="139.755" width="42.4653" height="20.8321" rx="10.416" transform="rotate(3.0743 252.723 139.755)" fill="black" /><path d="M263.821 156.463C262.978 156.417 262.195 156.215 261.474 155.855C260.753 155.499 260.126 155.024 259.593 154.431C259.065 153.843 258.662 153.173 258.385 152.421C258.108 151.666 257.992 150.866 258.038 150.023C258.083 149.179 258.284 148.396 258.64 147.675C258.996 146.953 259.468 146.328 260.057 145.8C260.65 145.267 261.324 144.863 262.079 144.586C262.835 144.309 263.634 144.194 264.478 144.239C265.322 144.284 266.104 144.485 266.826 144.841C267.547 145.197 268.172 145.671 268.7 146.264C269.229 146.853 269.632 147.525 269.909 148.28C270.189 149.035 270.307 149.835 270.262 150.679C270.216 151.523 270.014 152.305 269.654 153.027C269.298 153.744 268.826 154.367 268.237 154.896C267.648 155.428 266.976 155.833 266.221 156.11C265.465 156.39 264.665 156.508 263.821 156.463ZM267.215 150.51C267.219 150.427 267.208 150.347 267.181 150.267C267.154 150.187 267.103 150.104 267.03 150.018L265.226 147.934C265.174 147.877 265.118 147.833 265.056 147.802C265 147.767 264.93 147.748 264.848 147.744C264.696 147.736 264.568 147.783 264.464 147.888C264.361 147.988 264.305 148.112 264.297 148.261C264.289 148.421 264.34 148.559 264.451 148.674L265.264 149.523L265.657 149.856L264.769 149.755L261.675 149.589C261.511 149.58 261.365 149.633 261.238 149.748C261.114 149.863 261.048 150.006 261.038 150.178C261.029 150.35 261.08 150.499 261.191 150.627C261.305 150.754 261.445 150.823 261.609 150.831L264.703 150.998L265.602 150.993L265.169 151.281L264.271 152.038C264.148 152.141 264.082 152.275 264.073 152.439C264.065 152.583 264.107 152.713 264.199 152.828C264.291 152.938 264.413 152.998 264.565 153.006C264.647 153.01 264.719 153 264.779 152.976C264.843 152.948 264.904 152.909 264.961 152.857L266.978 150.979C267.061 150.901 267.12 150.824 267.155 150.747C267.19 150.671 267.21 150.592 267.215 150.51Z" fill="white" /><path d="M273.682 155.706L273.74 154.619L276.859 151.752C277.289 151.361 277.624 151.039 277.864 150.784C278.108 150.526 278.281 150.297 278.383 150.097C278.486 149.894 278.544 149.678 278.556 149.449L278.557 149.43C278.572 149.155 278.525 148.906 278.415 148.682C278.306 148.459 278.142 148.281 277.924 148.148C277.706 148.011 277.44 147.934 277.128 147.917C276.811 147.9 276.528 147.952 276.279 148.073C276.031 148.189 275.833 148.36 275.688 148.586C275.542 148.812 275.46 149.082 275.444 149.394L275.436 149.419L273.936 149.332L273.931 149.313C273.961 148.75 274.123 148.262 274.417 147.847C274.711 147.432 275.104 147.117 275.596 146.901C276.088 146.685 276.649 146.594 277.278 146.628C277.862 146.659 278.375 146.798 278.817 147.043C279.263 147.288 279.606 147.612 279.843 148.013C280.081 148.415 280.186 148.869 280.158 149.378L280.157 149.397C280.139 149.734 280.057 150.062 279.91 150.38C279.764 150.694 279.524 151.034 279.191 151.401C278.862 151.768 278.41 152.201 277.836 152.701L275.488 154.75L275.951 154.06L275.913 154.773L275.503 154.469L280.01 154.711L279.938 156.042L273.682 155.706ZM285.158 156.548C284.679 156.522 284.227 156.41 283.803 156.212C283.38 156.01 283.009 155.714 282.691 155.325C282.378 154.932 282.141 154.441 281.981 153.851C281.82 153.258 281.762 152.552 281.806 151.736L281.806 151.723C281.861 150.71 282.053 149.852 282.384 149.146C282.714 148.437 283.161 147.905 283.723 147.551C284.29 147.197 284.95 147.04 285.704 147.081C286.254 147.11 286.747 147.239 287.182 147.467C287.617 147.691 287.971 147.988 288.243 148.358C288.516 148.728 288.688 149.146 288.759 149.614L288.768 149.684L287.186 149.599L287.165 149.535C287.097 149.318 286.992 149.128 286.85 148.966C286.713 148.8 286.54 148.67 286.332 148.575C286.129 148.476 285.896 148.42 285.633 148.406C285.154 148.38 284.754 148.501 284.435 148.768C284.12 149.031 283.875 149.394 283.7 149.856C283.528 150.319 283.415 150.84 283.359 151.418C283.351 151.476 283.346 151.536 283.343 151.599C283.34 151.657 283.336 151.718 283.333 151.78L283.533 153.302C283.515 153.643 283.577 153.958 283.721 154.246C283.864 154.533 284.067 154.766 284.329 154.943C284.591 155.12 284.887 155.217 285.216 155.235C285.549 155.253 285.856 155.19 286.135 155.046C286.415 154.898 286.641 154.693 286.814 154.431C286.987 154.164 287.083 153.864 287.1 153.531L287.101 153.518C287.12 153.168 287.059 152.856 286.92 152.581C286.784 152.302 286.587 152.078 286.329 151.91C286.07 151.741 285.77 151.648 285.429 151.629C285.091 151.611 284.781 151.67 284.498 151.805C284.219 151.94 283.993 152.137 283.82 152.395C283.648 152.654 283.552 152.951 283.534 153.289L283.533 153.302L283.158 153.281L283.248 151.619L283.466 151.63C283.592 151.399 283.764 151.187 283.983 150.994C284.207 150.801 284.478 150.65 284.797 150.542C285.117 150.434 285.48 150.391 285.889 150.413C286.468 150.444 286.972 150.601 287.399 150.883C287.831 151.165 288.16 151.538 288.386 152.001C288.612 152.461 288.71 152.976 288.679 153.547L288.679 153.559C288.646 154.172 288.473 154.708 288.16 155.167C287.847 155.627 287.431 155.981 286.912 156.229C286.397 156.477 285.812 156.583 285.158 156.548Z" fill="white" /></g></g><defs><clipPath id="bgblur_1_276_3315_clip_path" transform="translate(24 24)"><rect x="10.0166" width="321.294" height="186.765" rx="25.6394" transform="rotate(3.0743 10.0166 0)" /></clipPath><radialGradient id="paint0_radial_276_3315" cx="0" cy="0" r="1" gradientTransform="matrix(370.644 222.949 -222.197 197.338 -39.079 -33.9677)" gradientUnits="userSpaceOnUse"><stop stop-color="#050505" stop-opacity="0" /><stop offset="0.0625528" stop-color="#050505" stop-opacity="0" /><stop offset="0.85336" stop-color="#00FACC" /><stop offset="1" stop-color="#00EEFA" /></radialGradient><radialGradient id="paint1_radial_276_3315" cx="0" cy="0" r="1" gradientTransform="matrix(371.458 222.036 -222.685 196.53 -39.5399 -33.521)" gradientUnits="userSpaceOnUse"><stop stop-color="#050505" stop-opacity="0" /><stop offset="0.421714" stop-color="#050505" stop-opacity="0" /><stop offset="0.898607" stop-color="#0400FA" /><stop offset="1" stop-color="#0400FA" /></radialGradient><clipPath id="clip0_276_3315"><rect x="10.0166" width="321.294" height="186.765" rx="25.6394" transform="rotate(3.0743 10.0166 0)" fill="white" /></clipPath></defs></svg>